<svg width="32" height="32" fill="none" xmlns="http://www.w3.org/2000/svg"><path fill-rule="evenodd" clip-rule="evenodd" d="M16.038.855C7.473.855.513 7.764.513 16.343S7.473 31.83 16.038 31.83c8.566 0 15.45-6.908 15.45-15.487S24.604.855 16.038.855zm1.224 19.664c-1.147-.076-1.606-.684-2.524-1.215-.459 2.58-1.07 5.01-2.83 6.301-.535-3.872.765-6.756 1.377-9.87-1.07-1.745.153-5.39 2.371-4.479 2.753 1.063-2.37 6.681 1.07 7.364 3.672.76 5.125-6.3 2.907-8.578-3.289-3.265-9.484-.076-8.719 4.63.23 1.14 1.377 1.519.536 3.113-2.142-.455-2.754-2.126-2.677-4.251.153-3.568 3.212-6.074 6.348-6.453 3.9-.456 7.571 1.442 8.03 5.086.612 4.176-1.759 8.655-5.889 8.352z" fill="#fff"/></svg>