<svg width="32" height="32" fill="none" xmlns="http://www.w3.org/2000/svg"><path d="M16 0a16 16 0 100 32 16 16 0 000-32zm7.379 20.994c-.375.052-2.196 0-2.29 0a1.791 1.791 0 01-1.264-.503c-.385-.371-.732-.777-1.1-1.165a3.091 3.091 0 00-.36-.324c-.302-.232-.599-.179-.74.175-.11.383-.186.776-.227 1.172a.633.633 0 01-.655.609 6.268 6.268 0 01-.743 0 5.657 5.657 0 01-2.575-.632 7.042 7.042 0 01-2.2-1.924 23.188 23.188 0 01-2.438-4c-.035-.07-.745-1.579-.762-1.65a.421.421 0 01.196-.542c.126-.048 2.465 0 2.503 0a.814.814 0 01.785.565 12.268 12.268 0 001.754 3.078c.103.124.223.233.356.324a.269.269 0 00.45-.135c.093-.305.148-.62.163-.939.012-.631 0-1.053-.036-1.684a.819.819 0 00-.76-.865c-.185-.032-.21-.184-.082-.335.246-.314.587-.364.958-.383.56-.032 1.122 0 1.684 0h.122c.247 0 .493.024.735.073a.67.67 0 01.532.598c.029.16.041.32.038.482-.015.691-.048 1.38-.057 2.068-.005.273.02.545.074.813.082.366.333.458.59.193.32-.344.613-.712.877-1.1a11 11 0 001.167-2.262c.162-.408.286-.499.726-.499h2.482a1.54 1.54 0 01.438.057.38.38 0 01.261.488 4.098 4.098 0 01-.733 1.453c-.505.716-1.035 1.413-1.553 2.118a2.46 2.46 0 00-.18.282c-.193.352-.178.547.102.842.45.465.932.9 1.366 1.375.32.348.608.722.863 1.12.32.5.125.973-.467 1.057z" fill="#fff"/></svg>