<svg width="94" height="39" viewBox="0 0 94 39" fill="none" xmlns="http://www.w3.org/2000/svg">
<g clip-path="url(#clip0_42_902)">
<path d="M8.53344 6.71289L0 32.2871H4.96438L6.55063 26.9555H15.4659L17.0228 32.2871H22.0606L13.4684 6.71289H8.53344ZM7.76969 22.7822L10.9863 12.3565L14.2469 22.7822H7.76969Z" fill="white"/>
<path d="M40.3462 18.877C41.1099 17.6741 41.4771 16.2483 41.4771 14.585C41.4771 13.0998 41.154 11.778 40.5224 10.6196C39.8909 9.46119 39.0096 8.5701 37.864 7.96119C37.438 7.73842 36.9827 7.5305 36.5127 7.36713C36.0427 7.20376 35.514 7.0701 34.9265 6.98099C34.339 6.89188 33.634 6.83248 32.8262 6.78792C32.0184 6.74337 31.0637 6.72852 29.9474 6.72852H23.6465V32.3028H28.4934V22.5305H31.989L37.1443 32.3028H42.799L37.0121 21.6691C38.4809 21.0008 39.5971 20.08 40.3462 18.877ZM35.9546 16.6345C35.5727 17.2137 35.0587 17.6444 34.3977 17.9117C34.1627 17.9859 33.9424 18.0602 33.6927 18.1196C33.4577 18.179 33.1787 18.2236 32.8702 18.2533C32.5618 18.283 32.2093 18.2978 31.7834 18.3127C31.3721 18.3275 30.858 18.3275 30.2412 18.3275H28.4934V10.9018H29.9034C30.7405 10.9018 31.4162 10.9018 31.9449 10.9166C32.4737 10.9315 32.9143 10.9612 33.2668 11.0057C33.6193 11.0503 33.913 11.1246 34.1627 11.1988C34.3977 11.2731 34.6474 11.3919 34.8971 11.5404C35.9546 12.179 36.4834 13.1741 36.4834 14.5255C36.5274 15.3572 36.3365 16.0552 35.9546 16.6345Z" fill="white"/>
<path d="M51.0099 34.9897L56.4002 33.7125L59.4405 23.8808L66.4318 31.3066L71.8221 30.0293L61.1589 18.9056L65.5652 5.24219L60.1749 6.51942L57.443 15.3412L51.2155 8.67288L45.8252 9.95011L55.6658 20.2125L51.0099 34.9897Z" fill="white"/>
<path d="M80.6051 27.9356L85.3198 26.8069L83.0286 16.9901L87.5229 0L82.3236 1.24752L79.5476 12.3861L72.057 3.69802L66.7842 4.94554L78.3139 18.1188L80.6051 27.9356Z" fill="white"/>
<path d="M90.7252 26.5107L90.8867 27.179L49.7911 36.9958L44.1364 12.7879L44.7973 12.6394L43.2552 9.72852L43.1523 13.0255L43.8133 12.877L49.468 37.0701L47.867 37.4414L47.9405 37.783L49.5414 37.3968L49.9233 39.0008L50.2464 38.9265L49.8645 37.3226L90.9602 27.5057L91.1217 28.1741L94.0005 26.6147L90.7252 26.5107Z" fill="white"/>
</g>
<defs>
<clipPath id="clip0_42_902">
<rect width="94" height="39" fill="white"/>
</clipPath>
</defs>
</svg>
