<svg width="32" height="32" viewBox="0 0 32 32" fill="none" xmlns="http://www.w3.org/2000/svg">
<path fill-rule="evenodd" clip-rule="evenodd" d="M16.0384 0.855469C7.47251 0.855469 0.512695 7.76404 0.512695 16.3431C0.512695 24.9218 7.47251 31.8304 16.0384 31.8304C24.6044 31.8304 31.4877 24.9218 31.4877 16.3431C31.4877 7.76404 24.6043 0.855469 16.0384 0.855469V0.855469ZM17.2621 20.5186C16.1149 20.4425 15.656 19.8354 14.7383 19.3039C14.2794 21.8849 13.6675 24.3142 11.9084 25.605C11.3731 21.7332 12.6732 18.8485 13.2851 15.7356C12.2143 13.9895 13.4381 10.3455 15.656 11.2563C18.4094 12.3193 13.2851 17.9372 16.7268 18.6204C20.3979 19.3796 21.851 12.3193 19.6331 10.0417C16.3443 6.77709 10.1494 9.96563 10.9142 14.6726C11.1436 15.8116 12.2909 16.191 11.4496 17.7855C9.30806 17.3301 8.69622 15.6595 8.77268 13.534C8.92563 9.96563 11.9849 7.46024 15.1206 7.08086C19.0212 6.62542 22.6923 8.52325 23.1512 12.1672C23.7631 16.3431 21.3921 20.8224 17.2621 20.5186L17.2621 20.5186Z" fill="white"/>
</svg>
